<svg width="33" height="33" viewBox="0 0 33 33" fill="none" xmlns="http://www.w3.org/2000/svg">
<circle cx="16.5" cy="16.5" r="16.5" fill="#222222"/>
<g clip-path="url(#clip0_541_191)">
<path d="M23.7416 9H9.25508C8.56113 9 8 9.4834 8 10.0811V22.916C8 23.5137 8.56113 24 9.25508 24H23.7416C24.4355 24 25 23.5137 25 22.9189V10.0811C25 9.4834 24.4355 9 23.7416 9ZM13.0436 21.7822H10.5201V14.6221H13.0436V21.7822ZM11.7818 13.6465C10.9717 13.6465 10.3176 13.0693 10.3176 12.3574C10.3176 11.6455 10.9717 11.0684 11.7818 11.0684C12.5887 11.0684 13.2428 11.6455 13.2428 12.3574C13.2428 13.0664 12.5887 13.6465 11.7818 13.6465ZM22.4865 21.7822H19.9664V18.3018C19.9664 17.4727 19.9498 16.4033 18.6549 16.4033C17.3434 16.4033 17.1441 17.3086 17.1441 18.2432V21.7822H14.6273V14.6221H17.0445V15.6006H17.0777C17.4131 15.0381 18.2365 14.4434 19.4617 14.4434C22.015 14.4434 22.4865 15.9258 22.4865 17.8535V21.7822Z" fill="#7F7047"/>
</g>
<defs>
<clipPath id="clip0_541_191">
<rect width="17" height="15" fill="white" transform="translate(8 9)"/>
</clipPath>
</defs>
</svg>
