<svg width="64" height="64" viewBox="0 0 64 64" fill="none" xmlns="http://www.w3.org/2000/svg">
<path d="M63.3333 0H21.56C21.3832 0 21.2136 0.070238 21.0886 0.195262C20.9636 0.320287 20.8933 0.489856 20.8933 0.666667V10.3133H11.24C11.0632 10.3133 10.8936 10.3836 10.7686 10.5086C10.6436 10.6336 10.5733 10.8032 10.5733 10.98V20.8867H0.666667C0.489856 20.8867 0.320287 20.9569 0.195262 21.0819C0.070238 21.207 0 21.3765 0 21.5533V63.3333C0 63.5101 0.070238 63.6797 0.195262 63.8047C0.320287 63.9298 0.489856 64 0.666667 64H42.4467C42.6235 64 42.793 63.9298 42.9181 63.8047C43.0431 63.6797 43.1133 63.5101 43.1133 63.3333V53.4267H53.02C53.1968 53.4267 53.3664 53.3564 53.4914 53.2314C53.6164 53.1064 53.6867 52.9368 53.6867 52.76V43.1067H63.3333C63.5101 43.1067 63.6797 43.0364 63.8047 42.9114C63.9298 42.7864 64 42.6168 64 42.44V0.666667C64 0.489856 63.9298 0.320287 63.8047 0.195262C63.6797 0.070238 63.5101 0 63.3333 0ZM41.78 62.6667H1.33333V22.22H41.78V62.6667ZM52.3533 52.0933H43.1133V21.5533C43.1133 21.3765 43.0431 21.207 42.9181 21.0819C42.793 20.9569 42.6235 20.8867 42.4467 20.8867H11.9067V11.6467H52.3533V52.0933ZM62.6667 41.7733H53.6867V10.98C53.6867 10.8032 53.6164 10.6336 53.4914 10.5086C53.3664 10.3836 53.1968 10.3133 53.02 10.3133H22.2267V1.33333H62.6667V41.7733Z" fill="#7F7047"/>
</svg>
