<svg width="33" height="33" viewBox="0 0 33 33" fill="none" xmlns="http://www.w3.org/2000/svg">
<circle cx="16.5" cy="16.5" r="16.5" fill="#222222"/>
<path d="M24.8406 13.5C24.8406 13.5 24.6844 12.4658 24.2031 12.0117C23.5938 11.4141 22.9125 11.4111 22.6 11.376C20.3625 11.2236 17.0031 11.2236 17.0031 11.2236H16.9969C16.9969 11.2236 13.6375 11.2236 11.4 11.376C11.0875 11.4111 10.4062 11.4141 9.79688 12.0117C9.31563 12.4658 9.1625 13.5 9.1625 13.5C9.1625 13.5 9 14.7158 9 15.9287V17.0654C9 18.2783 9.15937 19.4941 9.15937 19.4941C9.15937 19.4941 9.31562 20.5283 9.79375 20.9824C10.4031 21.5801 11.2031 21.5596 11.5594 21.624C12.8406 21.7383 17 21.7734 17 21.7734C17 21.7734 20.3625 21.7676 22.6 21.6182C22.9125 21.583 23.5938 21.5801 24.2031 20.9824C24.6844 20.5283 24.8406 19.4941 24.8406 19.4941C24.8406 19.4941 25 18.2812 25 17.0654V15.9287C25 14.7158 24.8406 13.5 24.8406 13.5ZM15.3469 18.4453V14.2295L19.6687 16.3447L15.3469 18.4453Z" fill="#7F7047"/>
</svg>
